<svg xmlns="http://www.w3.org/2000/svg" viewBox="0 0 325.62 325.62"><defs><style>.b44c78a5-a397-449b-8b60-184a3a9cf22b{fill:#fff;}</style></defs><g id="baf60626-f68d-4b78-850b-0e188635a024" data-name="Layer 2"><g id="be4dc739-831e-4839-9b83-efe52b974f50" data-name="Layer 1"><path class="b44c78a5-a397-449b-8b60-184a3a9cf22b" d="M162.81,320.62a44.08,44.08,0,0,1-44.09-44.09V206.91H49.9c-24.36,0-44.5-19.45-44.89-43.34A44.07,44.07,0,0,1,49.1,118.72h69.62V50c0-24.37,20.2-45,44.11-45h.33a44.08,44.08,0,0,1,43.75,44.1v69.62h68.75a45.64,45.64,0,0,1,32.15,13.48,43.28,43.28,0,0,1,12.81,31,44.08,44.08,0,0,1-44.09,43.75H206.91v68.81c0,24.36-19.45,44.5-43.34,44.9Z"/><path d="M162.83,10h.29a39.08,39.08,0,0,1,38.79,39.1v74.62h73.75a40.6,40.6,0,0,1,28.6,12,38.31,38.31,0,0,1,11.36,27.4,39.08,39.08,0,0,1-39.09,38.79H201.91v73.81c0,21.65-17.24,39.55-38.43,39.9h-.67a39.13,39.13,0,0,1-39.09-39.09V201.91H49.9c-21.64,0-39.54-17.24-39.89-38.43A39.08,39.08,0,0,1,49.1,123.72h74.62V50a40.09,40.09,0,0,1,11.56-28.15A38.34,38.34,0,0,1,162.83,10m0-10c-27.05,0-49.11,22.87-49.11,50v63.76H49.1A49.09,49.09,0,0,0,0,163.65c.44,26.92,23,48.26,49.89,48.26h63.82v64.62a49.09,49.09,0,0,0,49.09,49.09h.84c26.92-.45,48.26-23,48.26-49.9V211.91h64.62a49.08,49.08,0,0,0,49.09-48.71c.21-27.22-22.74-49.48-50-49.48H211.91V49.1A49.1,49.1,0,0,0,163.2,0Z"/></g></g></svg>