<svg xmlns="http://www.w3.org/2000/svg" viewBox="0 0 298.12 298.13">
    <defs>
        <style>.cls-1{fill:#fff;}</style>
    </defs>
    <g id="Layer_2" data-name="Layer 2">
        <g id="Layer_1-2" data-name="Layer 1">
            <path class="cls-1" d="M149.06,293.12a39.93,39.93,0,0,1-39.95-39.94V189H45.69C23.62,189,5.37,171.4,5,149.75A39.94,39.94,0,0,1,45,109.11h64.16V45.74c0-22.08,18.3-40.74,40-40.74h.3A39.93,39.93,0,0,1,189,45v64.16h63.37a41.36,41.36,0,0,1,29.13,12.22,39.22,39.22,0,0,1,11.61,28.05A39.91,39.91,0,0,1,253.18,189H189v63.43c0,22.07-17.61,40.32-39.26,40.68Z"/>
            <path d="M149.08,10h.26A34.93,34.93,0,0,1,184,45v69.16h68.37A36.31,36.31,0,0,1,278,124.86a34.19,34.19,0,0,1,10.16,24.48A34.91,34.91,0,0,1,253.18,184H184v68.43c0,19.36-15.41,35.36-34.35,35.68h-.6a35,35,0,0,1-34.95-34.95V184H45.69C26.33,184,10.32,168.6,10,149.66a35,35,0,0,1,35-35.55h69.16V45.74a35.89,35.89,0,0,1,10.35-25.18A34.28,34.28,0,0,1,149.08,10m0-10c-24.76,0-45,20.94-45,45.74v58.37H45A45,45,0,0,0,0,149.83C.42,174.48,21,194,45.69,194h58.42v59.17a45,45,0,0,0,45,44.95h.77c24.65-.41,44.18-21,44.18-45.68V194h59.17a44.93,44.93,0,0,0,44.94-44.59c.2-24.92-20.82-45.31-45.74-45.31H194V45A44.93,44.93,0,0,0,149.42,0Z"/>
        </g>
    </g>
</svg>