<svg xmlns="http://www.w3.org/2000/svg" viewBox="0 0 237.14 237.14"><defs><style>.cls-1{fill:#fff;}</style></defs><g id="Layer_2" data-name="Layer 2"><g id="Layer_1-2" data-name="Layer 1"><path class="cls-1" d="M192.19,232.14a39.69,39.69,0,0,1-28.25-11.7l-45.37-45.37L73.72,219.91a40.76,40.76,0,0,1-29,12,39.82,39.82,0,0,1-28-68l45.37-45.37L17.22,73.72c-15.6-15.61-16-41-1-56.53a40,40,0,0,1,57-.49l45.37,45.37,44.81-44.81a41.36,41.36,0,0,1,29.08-12,39.2,39.2,0,0,1,28.2,11.61,40,40,0,0,1-.22,56.28l-45.37,45.37,44.8,44.81a41.33,41.33,0,0,1,12,29.24,39.22,39.22,0,0,1-11.62,28A39.69,39.69,0,0,1,192.19,232.14Z"/><path d="M45,10A34.73,34.73,0,0,1,69.66,20.24L111.5,62.07l7.07,7.07,7.07-7.07L166.91,20.8a36.33,36.33,0,0,1,25.55-10.49A34.25,34.25,0,0,1,217.1,20.43a34.95,34.95,0,0,1-.2,49.23L175.07,111.5,168,118.57l7.08,7.07,41.27,41.27a36.35,36.35,0,0,1,10.49,25.69,34.21,34.21,0,0,1-10.13,24.5,34.94,34.94,0,0,1-49.22-.2l-41.84-41.83L118.57,168l-7.07,7.08L70.19,216.38A35.84,35.84,0,0,1,44.68,227a34.34,34.34,0,0,1-24-9.63,34.94,34.94,0,0,1-.42-49.84l41.83-41.84,7.07-7.07-7.07-7.07L20.76,70.19C7.07,56.5,6.65,34.28,19.82,20.66A34.69,34.69,0,0,1,45,10M45,0A44.81,44.81,0,0,0,12.63,13.71C-4.51,31.43-3.74,59.83,13.69,77.26L55,118.57,13.17,160.4a45,45,0,0,0,.54,64.11,44.33,44.33,0,0,0,31,12.44,46.08,46.08,0,0,0,32.58-13.5l41.31-41.31L160.4,224a44.94,44.94,0,0,0,63.32.25c17.76-17.48,17.31-46.76-.31-64.38l-41.27-41.27L224,76.73a44.93,44.93,0,0,0,.25-63.31A44.26,44.26,0,0,0,192.46.31a46.1,46.1,0,0,0-32.62,13.42L118.57,55,76.73,13.17A44.79,44.79,0,0,0,45,0Z"/></g></g></svg>