<svg xmlns="http://www.w3.org/2000/svg" viewBox="0 0 326.03 326.03"><defs><style>.e5c3e30f-1328-4200-b74d-338fc14ae616{fill:#fff;}</style></defs><g id="e20eb295-33d7-4838-ac33-a53f47e58a45" data-name="Layer 2"><g id="b17b8263-0a0a-4f3e-a78c-e6dcf56a8b72" data-name="Layer 1"><path class="e5c3e30f-1328-4200-b74d-338fc14ae616" d="M264.22,321a56.47,56.47,0,0,1-40.16-16.65l-61.05-61-60.33,60.34a58,58,0,0,1-41.25,17.09,56.61,56.61,0,0,1-39.79-96.7L82.69,163,22.36,102.68C.18,80.5-.45,44.46,21,22.33a56.78,56.78,0,0,1,81-.69L163,82.69l60.28-60.28a58.75,58.75,0,0,1,41.31-17A55.75,55.75,0,0,1,304.7,22a56.79,56.79,0,0,1-.31,80L243.33,163l60.28,60.28a58.72,58.72,0,0,1,17,41.53,55.77,55.77,0,0,1-16.53,39.88A56.54,56.54,0,0,1,264.22,321Z"/><path d="M61.8,10A51.46,51.46,0,0,1,98.42,25.17l57.52,57.52L163,89.76l7.07-7.07,56.74-56.75A53.77,53.77,0,0,1,264.6,10.42a50.79,50.79,0,0,1,36.54,15,51.78,51.78,0,0,1-.29,73l-57.52,57.52L236.26,163l7.07,7.07,56.75,56.74a53.72,53.72,0,0,1,15.52,38,50.77,50.77,0,0,1-15,36.34,51.78,51.78,0,0,1-73-.29l-57.52-57.52L163,236.26l-7.07,7.07-56.8,56.8a53,53,0,0,1-37.71,15.63A50.92,50.92,0,0,1,25.8,301.47a51.79,51.79,0,0,1-.63-73.87l57.52-57.52L89.76,163l-7.07-7.07-56.8-56.8C5.63,78.88,5,46,24.55,25.8A51.42,51.42,0,0,1,61.8,10m0-10A61.62,61.62,0,0,0,17.36,18.85c-23.56,24.36-22.5,63.4,1.46,87.36L75.62,163,18.1,220.53a61.8,61.8,0,0,0,.75,88.13,60.91,60.91,0,0,0,42.58,17.1,63.27,63.27,0,0,0,44.78-18.56L163,250.4l57.52,57.52a61.77,61.77,0,0,0,87,.34c24.4-24,23.79-64.28-.43-88.51L250.4,163l57.52-57.52a61.76,61.76,0,0,0,.34-87A60.92,60.92,0,0,0,264.6.42a63.39,63.39,0,0,0-44.85,18.45L163,75.62,105.49,18.1A61.57,61.57,0,0,0,61.8,0Z"/></g></g></svg>