<svg xmlns="http://www.w3.org/2000/svg" viewBox="0 0 325 338"><defs><style>.a95dfc5a-ad24-448a-bae9-565c755b6044{fill:#fff;}</style></defs><g id="e79624c9-6caf-4f14-be72-4e52ffacea50" data-name="Layer 2"><g id="ac2d171a-a97f-4098-888c-9914d2258f81" data-name="Layer 1"><path class="a95dfc5a-ad24-448a-bae9-565c755b6044" d="M162.55,333a49.29,49.29,0,0,1-33.78-13,44.6,44.6,0,0,1-5.25-5.81l-.27-.35L18.81,216.68a41.55,41.55,0,0,1,0-61.87,49.3,49.3,0,0,1,33.78-13,49.3,49.3,0,0,1,33.78,13l30.93,28.78V48.93C117.3,24.71,138.65,5,164.89,5s47.59,19.71,47.59,43.93V180.26l26.15-24.34a49.3,49.3,0,0,1,33.78-13h0a49.26,49.26,0,0,1,33.77,13,41.54,41.54,0,0,1,0,61.87L196.32,320A49.27,49.27,0,0,1,162.55,333Z"/><path d="M164.89,10c23.48,0,42.59,17.46,42.59,38.93V191.74l16.81-15.64L242,159.58a45.4,45.4,0,0,1,60.74,0,36.54,36.54,0,0,1,0,54.54L192.92,316.34a45.38,45.38,0,0,1-60.74,0,40.1,40.1,0,0,1-4.67-5.15l-.53-.71-.65-.6L22.22,213a36.55,36.55,0,0,1,0-54.55,44.29,44.29,0,0,1,30.37-11.65A44.28,44.28,0,0,1,83,158.47l22.53,21,16.81,15.65V48.93C122.3,27.46,141.41,10,164.89,10m0-10c-29,0-52.59,21.91-52.59,48.93V172.11l-22.53-21a54.43,54.43,0,0,0-37.18-14.33,54.45,54.45,0,0,0-37.18,14.33c-20.55,19.11-20.55,50.08,0,69.19L119.52,317.2a49.14,49.14,0,0,0,5.85,6.46,55.37,55.37,0,0,0,74.36,0L309.59,221.45c20.55-19.1,20.55-50.08,0-69.19a55.4,55.4,0,0,0-74.36,0l-17.75,16.52V48.93c0-27-23.55-48.93-52.59-48.93Z"/></g></g></svg>