<svg xmlns="http://www.w3.org/2000/svg" viewBox="0 0 271.93 303.96"><defs><style>.cls-1{fill:#fff;}</style></defs><g id="Layer_2" data-name="Layer 2"><g id="Layer_1-2" data-name="Layer 1"><path class="cls-1" d="M136,299a39,39,0,0,1-31.9-16.57l-.25-.36L16.43,194.61a39,39,0,0,1,55.15-55.15L99,166.85V44a39,39,0,1,1,78,0V163.85l23.39-23.38a39,39,0,1,1,55.15,55.14l-91.92,91.92A38.74,38.74,0,0,1,136,299Z"/><path d="M138,10a34,34,0,0,1,34,34V175.92L189,158.85,203.89,144A34,34,0,1,1,252,192.08L160,284A34,34,0,0,1,112,284a34.42,34.42,0,0,1-3.77-4.48l-.5-.71-.62-.62L20,191.08A34,34,0,1,1,68,143l18.85,18.85L104,178.92V44a34,34,0,0,1,34-34m0-10A44,44,0,0,0,94,44V154.78L75.11,135.93a44,44,0,0,0-62.22,62.22L100,285.26a44,44,0,0,0,67.11,5.81L259,199.15a44,44,0,1,0-62.22-62.22L182,151.78V44A44,44,0,0,0,138,0Z"/></g></g></svg>