<svg xmlns="http://www.w3.org/2000/svg" viewBox="0 0 205.73 322.73"><defs><style>.cls-1{fill:#fff;}</style></defs><g id="Layer_2" data-name="Layer 2"><g id="Layer_1-2" data-name="Layer 1"><path class="cls-1" d="M93.85,197.25,99,192.11a43.85,43.85,0,0,0,12.89-30.75A43.91,43.91,0,0,1,99,192.84,44.39,44.39,0,0,1,93.85,197.25Z"/><path d="M111.88,161.36A43.85,43.85,0,0,1,99,192.11l-5.14,5.14A43.44,43.44,0,0,0,99,192.84a43.89,43.89,0,0,0,12.89-31.48Z"/><path class="cls-1" d="M111.88,161.36A43.85,43.85,0,0,0,99,130.61l-5.14-5.14A44.39,44.39,0,0,1,99,129.88,43.86,43.86,0,0,1,111.88,161Z"/><path d="M93.85,125.47,99,130.61a43.85,43.85,0,0,1,12.89,30.75V161a44.18,44.18,0,0,0-18-35.52Z"/><path class="cls-1" d="M44,317.73a39,39,0,0,1-27.58-66.58l89.79-89.78L16.42,71.58A39,39,0,0,1,71.58,16.42L189.31,134.15a38.11,38.11,0,0,1,0,54.43L71.58,306.31A38.79,38.79,0,0,1,44,317.73Z"/><path d="M44,10A33.78,33.78,0,0,1,68,20L180.63,132.55l5.14,5.14a33.12,33.12,0,0,1,0,47.35l-5.14,5.14L68.05,302.77A34,34,0,1,1,20,254.69l86.25-86.25,7.07-7.08-7.07-7.07L20,68.05A34,34,0,0,1,44,10M44,0A44,44,0,0,0,12.88,75.11l86.25,86.25L12.88,247.61a44,44,0,1,0,62.23,62.23L187.7,197.25l5.14-5.14a43.12,43.12,0,0,0,0-61.5l-5.14-5.14L75.11,12.89A43.82,43.82,0,0,0,44,0Z"/></g></g></svg>