<svg xmlns="http://www.w3.org/2000/svg" viewBox="0 0 326.14 322.73"><defs><style>.adf19198-bce9-42e1-b7a4-00c30c5b02ea{fill:#fff;}</style></defs><g id="a4600538-ffc8-484f-9626-02d85bedda50" data-name="Layer 2"><g id="a1fb0509-4ec4-4ea9-92a8-bbab00fa016c" data-name="Layer 2"><circle class="adf19198-bce9-42e1-b7a4-00c30c5b02ea" cx="38.5" cy="161.36" r="33.5"/><path d="M38.5,132.86A28.5,28.5,0,1,1,10,161.36a28.54,28.54,0,0,1,28.5-28.5m0-10A38.5,38.5,0,1,0,77,161.36a38.5,38.5,0,0,0-38.5-38.5Z"/></g><g id="a5fee0a7-04c6-4920-8a87-9169256ab143" data-name="Layer 1"><path class="adf19198-bce9-42e1-b7a4-00c30c5b02ea" d="M214.26,193.38l5.14-5.14a43.85,43.85,0,0,0,12.89-30.75A43.91,43.91,0,0,1,219.4,189,44.39,44.39,0,0,1,214.26,193.38Z"/><path d="M232.29,157.49a43.85,43.85,0,0,1-12.89,30.75l-5.14,5.14A44.39,44.39,0,0,0,219.4,189a43.91,43.91,0,0,0,12.89-31.48Z"/><path class="adf19198-bce9-42e1-b7a4-00c30c5b02ea" d="M232.29,157.49a43.85,43.85,0,0,0-12.89-30.75l-5.14-5.14A44.39,44.39,0,0,1,219.4,126a43.86,43.86,0,0,1,12.89,31.11Z"/><path d="M214.26,121.6l5.14,5.14a43.85,43.85,0,0,1,12.89,30.75v-.37A43.86,43.86,0,0,0,219.4,126a44.39,44.39,0,0,0-5.14-4.41Z"/><path class="adf19198-bce9-42e1-b7a4-00c30c5b02ea" d="M164.4,317.73a39,39,0,0,1-27.57-66.58l89.78-89.79L136.83,71.58A39,39,0,0,1,192,16.42L309.72,134.15a38.13,38.13,0,0,1,0,54.43L192,306.31A38.76,38.76,0,0,1,164.4,317.73Z"/><path d="M164.4,10a33.79,33.79,0,0,1,24,10L301,132.55l5.14,5.14a33.12,33.12,0,0,1,0,47.35L301,190.18,188.45,302.77a34,34,0,1,1-48.09-48.08l86.25-86.25,7.07-7.08-7.07-7.07L140.36,68.05a34,34,0,0,1,24-58m0-10a44,44,0,0,0-31.11,75.11l86.25,86.25-86.25,86.25a44,44,0,1,0,62.23,62.23L308.11,197.26l5.14-5.15a43.12,43.12,0,0,0,0-61.5l-5.14-5.14L195.52,12.89A43.84,43.84,0,0,0,164.4,0Z"/></g></g></svg>