<svg xmlns="http://www.w3.org/2000/svg" viewBox="0 0 334 316"><defs><style>.b5b17cd2-e4a9-4bf2-b264-66bfa734b407,.fdb4bc18-d68d-4c7f-81df-1c654ebd9467{fill:#fff;}.fdb4bc18-d68d-4c7f-81df-1c654ebd9467{stroke:#000;stroke-miterlimit:10;stroke-width:10px;}</style></defs><g id="b3482022-24d9-415c-a658-b4215e91777f" data-name="Layer 2"><g id="a1eeeea6-736a-4645-ad84-6fbc4efd0c0b" data-name="Layer 2"><path class="b5b17cd2-e4a9-4bf2-b264-66bfa734b407" d="M23.5,311a18.5,18.5,0,0,1,0-37h287a18.5,18.5,0,0,1,0,37Z"/><path d="M310.5,279a13.5,13.5,0,0,1,0,27H23.5a13.5,13.5,0,0,1,0-27h287m0-10H23.5a23.5,23.5,0,0,0,0,47h287a23.5,23.5,0,0,0,0-47Z"/></g><g id="a69117fc-0547-48ad-abd8-a56ef4bd7c77" data-name="Layer 1"><path class="fdb4bc18-d68d-4c7f-81df-1c654ebd9467" d="M169.08,242.45S83.39,160.28,83.39,86.57,120.28,5,168.49,5h-3c48.21,0,85.1,7.85,85.1,81.57s-85.69,155.88-85.69,155.88"/><circle class="fdb4bc18-d68d-4c7f-81df-1c654ebd9467" cx="167" cy="87.66" r="44.34"/></g></g></svg>