<svg xmlns="http://www.w3.org/2000/svg" viewBox="0 0 205.73 322.73"><defs><style>.cls-1{fill:#fff;}</style></defs><g id="Layer_2" data-name="Layer 2"><g id="Layer_1-2" data-name="Layer 1"><path class="cls-1" d="M111.88,125.48l-5.14,5.14a43.85,43.85,0,0,0-12.89,30.75,43.91,43.91,0,0,1,12.89-31.48A44.39,44.39,0,0,1,111.88,125.48Z"/><path d="M111.88,125.48a44.39,44.39,0,0,0-5.14,4.41,43.91,43.91,0,0,0-12.89,31.48,43.85,43.85,0,0,1,12.89-30.75l5.14-5.14Z"/><path class="cls-1" d="M93.85,161.37a43.85,43.85,0,0,0,12.89,30.75l5.14,5.14a44.39,44.39,0,0,1-5.14-4.41,43.86,43.86,0,0,1-12.89-31.11Z"/><path d="M93.85,161.37v.37a43.86,43.86,0,0,0,12.89,31.11,44.39,44.39,0,0,0,5.14,4.41l-5.14-5.14a43.85,43.85,0,0,1-12.89-30.75Z"/><path class="cls-1" d="M161.74,317.73a38.8,38.8,0,0,1-27.59-11.42L16.42,188.58a38.13,38.13,0,0,1,0-54.43L134.16,16.42A38.76,38.76,0,0,1,161.74,5h0a39,39,0,0,1,27.57,66.58L99.53,161.37l89.78,89.78a39,39,0,0,1-27.57,66.58Z"/><path d="M161.74,10a34,34,0,0,1,24,58L99.53,154.29l-7.07,7.08,7.07,7.07,86.25,86.24a34,34,0,1,1-48.09,48.09L25.1,190.18,20,185a33.12,33.12,0,0,1,0-47.35l5.14-5.14L137.69,20a33.81,33.81,0,0,1,24.05-10m0-10a43.9,43.9,0,0,0-31.12,12.89L18,125.48l-5.14,5.14a43.12,43.12,0,0,0,0,61.5L18,197.26,130.62,309.85a44,44,0,0,0,62.23-62.23L106.6,161.37l86.25-86.25A44,44,0,0,0,161.74,0Z"/></g></g></svg>