<svg xmlns="http://www.w3.org/2000/svg" viewBox="0 0 331.85 322.73"><defs><style>.b7d0a18f-e963-43d6-aa6f-3b463d83184a{fill:#fff;}</style></defs><g id="b1bd63c0-cd24-40e8-bdab-f2fd06bd3b2e" data-name="Layer 2"><g id="a65f68ba-7675-4dd6-9b18-4fc23f0347fd" data-name="Layer 2"><circle class="b7d0a18f-e963-43d6-aa6f-3b463d83184a" cx="293.35" cy="161.36" r="33.5"/><path d="M293.35,132.86a28.5,28.5,0,1,1-28.5,28.5,28.53,28.53,0,0,1,28.5-28.5m0-10a38.5,38.5,0,1,0,38.5,38.5,38.5,38.5,0,0,0-38.5-38.5Z"/></g><g id="bf1b9bbb-d986-45dd-8517-6202c3061130" data-name="Layer 1"><path class="b7d0a18f-e963-43d6-aa6f-3b463d83184a" d="M111.88,120.1l-5.14,5.14A43.85,43.85,0,0,0,93.85,156a43.91,43.91,0,0,1,12.89-31.48A44.39,44.39,0,0,1,111.88,120.1Z"/><path d="M111.88,120.1a44.39,44.39,0,0,0-5.14,4.41A43.91,43.91,0,0,0,93.85,156a43.85,43.85,0,0,1,12.89-30.75l5.14-5.14Z"/><path class="b7d0a18f-e963-43d6-aa6f-3b463d83184a" d="M93.85,156a43.85,43.85,0,0,0,12.89,30.75l5.14,5.14a44.39,44.39,0,0,1-5.14-4.41,43.86,43.86,0,0,1-12.89-31.11Z"/><path d="M93.85,156v.37a43.86,43.86,0,0,0,12.89,31.11,44.39,44.39,0,0,0,5.14,4.41l-5.14-5.14A43.85,43.85,0,0,1,93.85,156Z"/><path class="b7d0a18f-e963-43d6-aa6f-3b463d83184a" d="M161.74,317.73a38.8,38.8,0,0,1-27.59-11.42L16.43,188.58a38.11,38.11,0,0,1,0-54.43L134.16,16.42a39,39,0,1,1,55.15,55.16L99.53,161.36l89.78,89.79a39,39,0,0,1-27.57,66.58Z"/><path d="M161.74,10a34,34,0,0,1,24,58L99.53,154.29l-7.07,7.07,7.07,7.08,86.25,86.24a34,34,0,1,1-48.09,48.09L25.1,190.18,20,185a33.12,33.12,0,0,1,0-47.35l5.14-5.14L137.69,20a33.81,33.81,0,0,1,24.05-10m0-10a43.89,43.89,0,0,0-31.12,12.89L18,125.48l-5.14,5.13a43.12,43.12,0,0,0,0,61.5L18,197.26,130.62,309.84a44,44,0,1,0,62.23-62.23L106.6,161.36l86.25-86.25A44,44,0,0,0,161.74,0Z"/></g></g></svg>