<svg xmlns="http://www.w3.org/2000/svg" viewBox="0 0 270.46 270.46"><defs><style>.a13111f3-d2bc-471c-a6a5-15a82f22d4ba{fill:#fff;}</style></defs><g id="a3d6e846-8570-46f6-b5d8-d319a099096d" data-name="Layer 2"><g id="a091e4c5-4b72-4d85-b58e-0316607707ce" data-name="Layer 2"><rect class="a13111f3-d2bc-471c-a6a5-15a82f22d4ba" width="270.46" height="270.46" rx="30.43"/></g><g id="a94c5544-2377-4203-9b27-d2e0b5d29f1c" data-name="Layer 1"><ellipse cx="188.68" cy="225.06" rx="7.41" ry="7.04"/><path d="M160.07,171.41c1.27.5,2.71.15,4,.44,9.89,2.11,61,10,67.35-51.39,7-68-82-104-134-79s-75,92-44,143c23.45,38.58,62.35,44,79.91,44.31a18.53,18.53,0,0,0,17.93-12.38c2.17-6.36.5-13.93-6.84-24.93C132.46,173.46,152.46,168.46,160.07,171.41Z"/><circle class="a13111f3-d2bc-471c-a6a5-15a82f22d4ba" cx="89.96" cy="85.96" r="18.5"/><circle class="a13111f3-d2bc-471c-a6a5-15a82f22d4ba" cx="65.46" cy="138.46" r="15"/><circle class="a13111f3-d2bc-471c-a6a5-15a82f22d4ba" cx="88.96" cy="187.96" r="13.5"/><circle class="a13111f3-d2bc-471c-a6a5-15a82f22d4ba" cx="146.46" cy="69.46" r="20"/><circle class="a13111f3-d2bc-471c-a6a5-15a82f22d4ba" cx="193.46" cy="110.46" r="22"/></g></g></svg>